<mxfile host="app.diagrams.net" agent="Mozilla/5.0 (Windows NT 10.0; Win64; x64) AppleWebKit/537.36 (KHTML, like Gecko) Chrome/134.0.0.0 Safari/537.36 Edg/134.0.0.0" version="26.1.1">
  <diagram name="Trang-1" id="-B2Yd9kfY99_qVj6j3hB">
    <mxGraphModel dx="1236" dy="1744" grid="1" gridSize="10" guides="1" tooltips="1" connect="1" arrows="1" fold="1" page="1" pageScale="1" pageWidth="827" pageHeight="1169" math="0" shadow="0">
      <root>
        <mxCell id="0" />
        <mxCell id="1" parent="0" />
        <mxCell id="cI8gdUKNez7JqXcXTaio-1" value="ATGM336H" style="rounded=1;whiteSpace=wrap;html=1;" vertex="1" parent="1">
          <mxGeometry x="190" y="110" width="120" height="60" as="geometry" />
        </mxCell>
        <mxCell id="cI8gdUKNez7JqXcXTaio-2" value="Khối GPS" style="swimlane;whiteSpace=wrap;html=1;strokeColor=#7A7A7A;" vertex="1" parent="1">
          <mxGeometry x="165" y="75" width="170" height="130" as="geometry" />
        </mxCell>
        <mxCell id="cI8gdUKNez7JqXcXTaio-3" value="DS3231&lt;span style=&quot;color: rgba(0, 0, 0, 0); font-family: monospace; font-size: 0px; text-align: start; text-wrap-mode: nowrap;&quot;&gt;%3CmxGraphModel%3E%3Croot%3E%3CmxCell%20id%3D%220%22%2F%3E%3CmxCell%20id%3D%221%22%20parent%3D%220%22%2F%3E%3CmxCell%20id%3D%222%22%20value%3D%22ATGM336H%22%20style%3D%22rounded%3D1%3BwhiteSpace%3Dwrap%3Bhtml%3D1%3B%22%20vertex%3D%221%22%20parent%3D%221%22%3E%3CmxGeometry%20x%3D%22190%22%20y%3D%22110%22%20width%3D%22120%22%20height%3D%2260%22%20as%3D%22geometry%22%2F%3E%3C%2FmxCell%3E%3CmxCell%20id%3D%223%22%20value%3D%22Kh%E1%BB%91i%20GPS%22%20style%3D%22swimlane%3BwhiteSpace%3Dwrap%3Bhtml%3D1%3B%22%20vertex%3D%221%22%20parent%3D%221%22%3E%3CmxGeometry%20x%3D%22165%22%20y%3D%2275%22%20width%3D%22170%22%20height%3D%22130%22%20as%3D%22geometry%22%2F%3E%3C%2FmxCell%3E%3C%2Froot%3E%3C%2FmxGraphModel%3E&lt;/span&gt;" style="rounded=1;whiteSpace=wrap;html=1;" vertex="1" parent="1">
          <mxGeometry x="190" y="275" width="120" height="60" as="geometry" />
        </mxCell>
        <mxCell id="cI8gdUKNez7JqXcXTaio-4" value="Khối thời gian thực" style="swimlane;whiteSpace=wrap;html=1;strokeColor=#7A7A7A;" vertex="1" parent="1">
          <mxGeometry x="165" y="240" width="170" height="130" as="geometry" />
        </mxCell>
        <mxCell id="cI8gdUKNez7JqXcXTaio-28" style="edgeStyle=orthogonalEdgeStyle;rounded=0;orthogonalLoop=1;jettySize=auto;html=1;entryX=0;entryY=0.5;entryDx=0;entryDy=0;" edge="1" parent="1" source="cI8gdUKNez7JqXcXTaio-5" target="cI8gdUKNez7JqXcXTaio-25">
          <mxGeometry relative="1" as="geometry" />
        </mxCell>
        <mxCell id="cI8gdUKNez7JqXcXTaio-5" value="ESP32&lt;div&gt;(Vi xử lý)&lt;/div&gt;" style="rounded=1;whiteSpace=wrap;html=1;" vertex="1" parent="1">
          <mxGeometry x="420" y="75" width="120" height="295" as="geometry" />
        </mxCell>
        <mxCell id="cI8gdUKNez7JqXcXTaio-7" style="edgeStyle=orthogonalEdgeStyle;rounded=0;orthogonalLoop=1;jettySize=auto;html=1;exitX=1;exitY=0.5;exitDx=0;exitDy=0;entryX=0.002;entryY=0.222;entryDx=0;entryDy=0;entryPerimeter=0;" edge="1" parent="1" source="cI8gdUKNez7JqXcXTaio-1" target="cI8gdUKNez7JqXcXTaio-5">
          <mxGeometry relative="1" as="geometry" />
        </mxCell>
        <mxCell id="cI8gdUKNez7JqXcXTaio-9" style="edgeStyle=orthogonalEdgeStyle;rounded=0;orthogonalLoop=1;jettySize=auto;html=1;entryX=-0.032;entryY=0.78;entryDx=0;entryDy=0;entryPerimeter=0;" edge="1" parent="1">
          <mxGeometry relative="1" as="geometry">
            <mxPoint x="310" y="305" as="sourcePoint" />
            <mxPoint x="420.00000000000006" y="304.6" as="targetPoint" />
          </mxGeometry>
        </mxCell>
        <mxCell id="cI8gdUKNez7JqXcXTaio-10" value="SD Card&amp;nbsp;" style="rounded=1;whiteSpace=wrap;html=1;" vertex="1" parent="1">
          <mxGeometry x="420" y="-40" width="120" height="60" as="geometry" />
        </mxCell>
        <mxCell id="cI8gdUKNez7JqXcXTaio-12" value="" style="endArrow=classic;startArrow=classic;html=1;rounded=0;" edge="1" parent="1" source="cI8gdUKNez7JqXcXTaio-5">
          <mxGeometry width="50" height="50" relative="1" as="geometry">
            <mxPoint x="430" y="70" as="sourcePoint" />
            <mxPoint x="480" y="20" as="targetPoint" />
          </mxGeometry>
        </mxCell>
        <mxCell id="cI8gdUKNez7JqXcXTaio-16" style="edgeStyle=orthogonalEdgeStyle;rounded=0;orthogonalLoop=1;jettySize=auto;html=1;entryX=0.5;entryY=1;entryDx=0;entryDy=0;fillColor=#FF0000;strokeColor=#FE0000;" edge="1" parent="1" source="cI8gdUKNez7JqXcXTaio-15" target="cI8gdUKNez7JqXcXTaio-5">
          <mxGeometry relative="1" as="geometry">
            <Array as="points">
              <mxPoint x="480" y="400" />
              <mxPoint x="480" y="400" />
            </Array>
          </mxGeometry>
        </mxCell>
        <mxCell id="cI8gdUKNez7JqXcXTaio-20" value="5V" style="edgeLabel;html=1;align=center;verticalAlign=middle;resizable=0;points=[];" vertex="1" connectable="0" parent="cI8gdUKNez7JqXcXTaio-16">
          <mxGeometry x="-0.136" y="4" relative="1" as="geometry">
            <mxPoint x="14" y="2" as="offset" />
          </mxGeometry>
        </mxCell>
        <mxCell id="cI8gdUKNez7JqXcXTaio-21" style="edgeStyle=orthogonalEdgeStyle;rounded=0;orthogonalLoop=1;jettySize=auto;html=1;exitX=0;exitY=0.5;exitDx=0;exitDy=0;entryX=0;entryY=0.5;entryDx=0;entryDy=0;strokeColor=#FE0000;" edge="1" parent="1" source="cI8gdUKNez7JqXcXTaio-15" target="cI8gdUKNez7JqXcXTaio-2">
          <mxGeometry relative="1" as="geometry">
            <mxPoint x="80" y="130" as="targetPoint" />
            <Array as="points">
              <mxPoint x="71" y="450" />
              <mxPoint x="71" y="140" />
            </Array>
          </mxGeometry>
        </mxCell>
        <mxCell id="cI8gdUKNez7JqXcXTaio-15" value="Nguồn 5V" style="rounded=1;whiteSpace=wrap;html=1;" vertex="1" parent="1">
          <mxGeometry x="420" y="420" width="120" height="60" as="geometry" />
        </mxCell>
        <mxCell id="cI8gdUKNez7JqXcXTaio-23" value="3.3V" style="text;html=1;align=center;verticalAlign=middle;resizable=0;points=[];autosize=1;strokeColor=none;fillColor=none;" vertex="1" parent="1">
          <mxGeometry x="260" y="420" width="50" height="30" as="geometry" />
        </mxCell>
        <mxCell id="cI8gdUKNez7JqXcXTaio-24" value="" style="endArrow=classic;html=1;rounded=0;entryX=0;entryY=0.5;entryDx=0;entryDy=0;strokeColor=#FE0000;" edge="1" parent="1" target="cI8gdUKNez7JqXcXTaio-4">
          <mxGeometry width="50" height="50" relative="1" as="geometry">
            <mxPoint x="70" y="305" as="sourcePoint" />
            <mxPoint x="120" y="250" as="targetPoint" />
          </mxGeometry>
        </mxCell>
        <mxCell id="cI8gdUKNez7JqXcXTaio-25" value="ATGM336H" style="rounded=1;whiteSpace=wrap;html=1;" vertex="1" parent="1">
          <mxGeometry x="635" y="192.5" width="120" height="60" as="geometry" />
        </mxCell>
        <mxCell id="cI8gdUKNez7JqXcXTaio-26" value="Khối mạng 4G" style="swimlane;whiteSpace=wrap;html=1;strokeColor=#7A7A7A;" vertex="1" parent="1">
          <mxGeometry x="610" y="157.5" width="170" height="130" as="geometry" />
        </mxCell>
        <mxCell id="cI8gdUKNez7JqXcXTaio-29" value="Thingsboard" style="ellipse;shape=cloud;whiteSpace=wrap;html=1;" vertex="1" parent="1">
          <mxGeometry x="920" y="182.5" width="120" height="80" as="geometry" />
        </mxCell>
        <mxCell id="cI8gdUKNez7JqXcXTaio-31" style="edgeStyle=orthogonalEdgeStyle;rounded=0;orthogonalLoop=1;jettySize=auto;html=1;exitX=1;exitY=0.5;exitDx=0;exitDy=0;" edge="1" parent="1" source="cI8gdUKNez7JqXcXTaio-26">
          <mxGeometry relative="1" as="geometry">
            <mxPoint x="930" y="220" as="targetPoint" />
          </mxGeometry>
        </mxCell>
      </root>
    </mxGraphModel>
  </diagram>
</mxfile>
